<?xml version="1.0" standalone="no"?>
<!DOCTYPE svg PUBLIC "-//W3C//DTD SVG 20010904//EN"
 "http://www.w3.org/TR/2001/REC-SVG-20010904/DTD/svg10.dtd">
<svg version="1.0" xmlns="http://www.w3.org/2000/svg"
 width="512.000000pt" height="512.000000pt" viewBox="0 0 512.000000 512.000000"
 preserveAspectRatio="xMidYMid meet">

<g transform="translate(0.000000,512.000000) scale(0.100000,-0.100000)"
fill="currentColor" stroke="none">
<path d="M2346 4629 c-814 -86 -1506 -643 -1760 -1419 -171 -521 -132 -1074
109 -1565 419 -855 1358 -1313 2291 -1120 619 129 1156 546 1439 1120 393 795
235 1750 -395 2385 -433 437 -1071 664 -1684 599z m399 -319 c531 -61 1001
-350 1289 -792 446 -685 360 -1589 -207 -2176 -154 -158 -293 -261 -483 -355
-795 -397 -1756 -139 -2252 604 -343 513 -384 1194 -108 1749 95 191 196 328
353 481 288 281 654 450 1063 492 78 8 260 6 345 -3z"/>
<path d="M2528 3820 c-64 -35 -82 -78 -86 -206 l-4 -111 -53 -17 c-114 -36
-239 -144 -302 -262 -47 -89 -66 -173 -61 -279 7 -148 67 -253 196 -339 82
-54 121 -72 315 -141 213 -77 277 -118 321 -207 58 -116 13 -237 -106 -288
-135 -58 -331 -36 -533 60 -44 20 -91 41 -104 45 -37 11 -106 -13 -142 -51
-29 -30 -34 -42 -37 -97 -5 -86 18 -119 123 -174 88 -46 268 -110 338 -119
l44 -6 5 -118 c6 -139 22 -176 92 -209 53 -26 89 -26 140 -1 72 36 81 57 84
206 l3 131 68 21 c215 69 370 278 371 498 0 70 -33 193 -72 267 -41 77 -148
191 -220 235 -30 18 -138 62 -239 98 -299 107 -338 135 -326 237 16 133 128
221 279 220 102 -2 185 -24 287 -79 59 -31 97 -45 126 -46 122 -2 198 117 145
226 -18 37 -35 54 -91 87 -79 47 -189 91 -271 110 l-58 12 0 102 c0 111 -13
144 -72 188 -39 29 -114 32 -160 7z"/>
</g>
</svg>
