<?xml version="1.0" standalone="no"?>
<!DOCTYPE svg PUBLIC "-//W3C//DTD SVG 20010904//EN"
 "http://www.w3.org/TR/2001/REC-SVG-20010904/DTD/svg10.dtd">
<svg version="1.0" xmlns="http://www.w3.org/2000/svg"
 width="64.000000pt" height="64.000000pt" viewBox="0 0 64.000000 64.000000"
 preserveAspectRatio="xMidYMid meet">

<g transform="translate(0.000000,64.000000) scale(0.100000,-0.100000)"
fill="currentColor" stroke="none">
<path d="M407 582 c-26 -26 -47 -53 -47 -60 0 -21 25 -13 56 19 l29 30 5 -198
c4 -167 7 -198 20 -198 13 0 16 31 20 198 l5 198 29 -30 c31 -32 56 -40 56
-18 0 18 -92 107 -111 107 -8 0 -36 -22 -62 -48z"/>
<path d="M157 464 c-4 -4 -7 -95 -7 -203 l0 -195 -33 32 c-34 33 -57 41 -57
19 0 -18 92 -107 111 -107 18 0 109 90 109 108 0 21 -25 13 -56 -19 l-29 -30
-5 197 c-5 185 -11 220 -33 198z"/>
</g>
</svg>
